<?xml version="1.0" encoding="iso-8859-1"?>
<!-- Uploaded to: SVG Repo, www.svgrepo.com, Generator: SVG Repo Mixer Tools -->
<!DOCTYPE svg PUBLIC "-//W3C//DTD SVG 1.1//EN" "http://www.w3.org/Graphics/SVG/1.1/DTD/svg11.dtd">
<svg fill="#ffffff" height="800px" width="800px" version="1.1" id="Capa_1" xmlns="http://www.w3.org/2000/svg" xmlns:xlink="http://www.w3.org/1999/xlink" 
	 viewBox="0 0 458.75 458.75" xml:space="preserve">
<g id="XMLID_461_">
	<circle id="XMLID_801_" cx="148.02" cy="62.886" r="32.568"/>
	<path id="XMLID_1188_" d="M455.923,270.81l-36.948-50.759c-0.847-1.164-1.86-2.197-3.006-3.068l-54.341-41.265
		c-4.144-3.147-9.412-3.757-13.964-2.106c-3.996,0.391-2.44,0.093-42.369,15.339c-4.726,1.804-8.465,5.064-10.913,9.071
		l23.188-4.979l-50.118,25.25c-46.326-26.377-46.848-27.72-53.07-27.113c-2.956-2.154-3.99-2.108-18.856-5.929l-35.587-9.147
		l-18.447-53.001l14.04,20.964l2.437-6.382c4.334-11.352-1.354-24.067-12.706-28.402c-39.874-15.225-38.375-14.951-42.39-15.34
		c-3.853-1.393-8.26-1.198-12.133,0.932L30.515,128.01c-2.803,1.542-5.029,3.954-6.342,6.871L1.304,185.685
		c-3.345,7.431-0.033,16.167,7.398,19.512c7.427,3.344,16.165,0.036,19.512-7.398L49.06,151.49l18.404-10.127l-26.899,72.322
		c0,0-1.884,18.136-11.42,148.14c-0.696,9.467,6.414,17.706,15.881,18.402c0.079,0.006,0.157,0.004,0.236,0.009H16.685
		c-3.774,0-6.833,3.059-6.833,6.833v34.539c0,3.774,3.059,6.833,6.833,6.833h141.821c3.774,0,6.833-3.059,6.833-6.833v-34.539
		c0-3.774-3.059-6.833-6.833-6.833h-25.587c9.148-0.389,16.451-7.906,16.451-17.15V282.14c0-3.271-0.933-6.473-2.689-9.231
		l-25.221-39.611l8.645-22.641c-5.698-4.739-9.062-11.471-9.527-15.907l-6.282-60.002l20.37,58.527
		c1.621,4.655,5.464,8.207,10.263,9.441c62.696,16.114,58.654,15.411,62.19,15.068c1.138,0.826-3.497-1.875,52.605,30.069
		c4.335,2.468,9.616,2.533,13.94,0.355l55.344-27.883l-26.734,22.395l21.328,55.857l-22.256,17.696
		c-2.931,2.331-5.021,5.555-5.952,9.182l-20.907,81.474c-2.359,9.194,3.182,18.561,12.376,20.92
		c9.194,2.359,18.561-3.182,20.92-12.376l19.473-75.884l35.435-28.175l6.241-2.383l-6.485,36.914
		c-0.751,4.277,0.144,8.679,2.506,12.323l40.37,62.282c5.164,7.968,15.809,10.236,23.771,5.074
		c7.965-5.163,10.237-15.806,5.074-23.771l-36.695-56.613l8.871-50.493l-18.93-62.391l8.978,6.818l35.67,49.004
		c4.797,6.591,14.026,8.041,20.613,3.246C459.266,286.627,460.719,277.398,455.923,270.81z M131.445,380.235H47.1
		c8.566-0.397,15.684-7.123,16.329-15.89l10.154-138.054l3.518,1.343l37.892,59.512v75.938
		C114.994,372.329,122.297,379.846,131.445,380.235z"/>
	<circle id="XMLID_1189_" cx="302.536" cy="142.555" r="32.568"/>
</g>
</svg>