<!DOCTYPE svg PUBLIC "-//W3C//DTD SVG 1.1//EN" "http://www.w3.org/Graphics/SVG/1.1/DTD/svg11.dtd">
<!-- Uploaded to: SVG Repo, www.svgrepo.com, Transformed by: SVG Repo Mixer Tools -->
<svg fill="#ededed" height="64px" width="64px" version="1.1" id="Capa_1" xmlns="http://www.w3.org/2000/svg" xmlns:xlink="http://www.w3.org/1999/xlink" viewBox="0 0 456.33 456.33" xml:space="preserve" stroke="#ededed" transform="matrix(1, 0, 0, 1, 0, 0)">
<g id="SVGRepo_bgCarrier" stroke-width="0"/>
<g id="SVGRepo_tracerCarrier" stroke-linecap="round" stroke-linejoin="round"/>
<g id="SVGRepo_iconCarrier"> <g id="XMLID_872_"> <circle id="XMLID_873_" cx="122.276" cy="106.359" r="27.398"/> <g id="XMLID_1079_"> <path id="XMLID_1173_" d="M451.924,131.11c-5.442-4.869-13.799-4.405-18.667,1.036l-29.665,33.15l-31.814-20.672 c-2.145-1.393-4.646-2.134-7.203-2.134c-5.827,0,11.759,0-53.924,0l-69.277-90.316c-3.715-4.844-9.47-7.686-15.575-7.691 c-6.104-0.006-11.865,2.826-15.589,7.662l-69.566,90.345c-13.913,0-27.859,0-41.805,0l-45.575-14.988L24.465,80.935 c-3.839-6.21-11.986-8.131-18.196-4.291s-8.131,11.987-4.29,18.197l31.334,50.667c1.637,2.648,4.156,4.632,7.113,5.605 l46.695,15.357l0.005,229.512c0,8.761,7.103,15.864,15.864,15.864s15.864-7.103,15.864-15.864V272.604 c0-1.891,1.533-3.424,3.424-3.424s3.424,1.533,3.424,3.424v123.377c0,8.761,7.103,15.864,15.864,15.864 s15.864-7.103,15.864-15.864c0-151.06-0.288-104.198-0.288-231.654c0.77-0.893-4.702,6.173,68.504-88.865 c73.22,95.057,67.73,87.968,68.503,88.865c0,62.206-0.288,100.289-0.288,231.654c0,8.761,7.103,15.864,15.864,15.864 s15.864-7.103,15.864-15.864V272.604c0-1.891,1.533-3.424,3.424-3.424s3.424,1.533,3.424,3.424v123.377 c0,8.761,7.103,15.864,15.864,15.864s15.864-7.103,15.864-15.864l0.006-224.766l34.512,22.425 c2.212,1.437,4.714,2.135,7.197,2.135c3.654,0,7.269-1.512,9.857-4.405l37.22-41.593 C457.828,144.337,457.364,135.979,451.924,131.11z"/> </g> <circle id="XMLID_1185_" cx="329.018" cy="106.359" r="27.398"/> </g> </g>
</svg>